<?xml version="1.0" standalone="no"?>
<!DOCTYPE svg PUBLIC "-//W3C//DTD SVG 20010904//EN"
 "http://www.w3.org/TR/2001/REC-SVG-20010904/DTD/svg10.dtd">
<svg version="1.0" xmlns="http://www.w3.org/2000/svg"
 width="1200.000000pt" height="1200.000000pt" viewBox="0 0 1200.000000 1200.000000"
 preserveAspectRatio="xMidYMid meet">

<g transform="translate(0.000000,1200.000000) scale(0.100000,-0.100000)"
fill="#000000" stroke="none">
<path d="M5195 8534 c-456 -311 -1281 -872 -1832 -1246 -810 -550 -1003 -686
-1003 -703 0 -17 309 -232 1620 -1124 891 -606 1622 -1107 1625 -1112 4 -5
-739 -9 -1924 -9 l-1931 0 0 -720 0 -720 4250 0 4250 0 0 720 0 720 -1877 0
c-1617 0 -1875 2 -1863 14 8 8 411 283 895 611 1819 1235 2336 1589 2345 1605
6 11 5 23 -3 32 -9 11 -3226 2207 -3607 2461 -34 23 -66 37 -85 37 -23 -1
-225 -133 -860 -566z m1850 -208 c1686 -1147 2540 -1728 2548 -1735 4 -4 -302
-219 -680 -476 -1584 -1080 -2579 -1758 -2596 -1766 -10 -6 -41 -9 -70 -7
l-52 3 1635 1111 c899 611 1636 1117 1637 1125 3 14 -3376 2321 -3408 2327
-20 4 -3412 -2302 -3417 -2322 -2 -7 701 -491 1633 -1125 899 -612 1635 -1114
1635 -1117 0 -2 -24 -4 -54 -4 l-54 0 -1023 698 c-563 384 -1304 888 -1647
1122 -342 233 -619 427 -615 431 5 3 508 346 1118 762 611 415 1404 955 1764
1200 360 245 659 443 665 440 6 -4 448 -304 981 -667z m-110 -65 c692 -470
2455 -1670 2462 -1675 0 0 -290 -199 -645 -441 -954 -650 -2357 -1604 -2515
-1711 -182 -123 -182 -123 -339 -17 -62 42 -599 408 -1193 813 -594 404 -1286
875 -1537 1045 -251 171 -455 311 -455 311 1 1 508 346 1127 766 619 421 1370
932 1669 1136 299 204 549 368 555 365 6 -4 398 -270 871 -592z m-2590 -4290
c22 -10 50 -29 62 -42 l22 -25 -24 -29 c-20 -26 -26 -28 -42 -17 -35 24 -98
52 -121 52 -98 1 -169 -118 -109 -184 12 -14 55 -39 96 -56 134 -55 169 -100
158 -205 -14 -133 -116 -224 -252 -225 -68 0 -144 30 -183 73 l-24 25 29 32
29 33 47 -36 c79 -61 162 -60 222 3 22 23 29 41 33 82 6 71 -11 89 -117 133
-98 40 -137 73 -152 128 -18 68 10 165 63 214 64 60 184 80 263 44z m4040 -8
c117 -61 180 -209 156 -364 -19 -120 -57 -195 -135 -267 -64 -59 -125 -84
-219 -90 -131 -8 -223 42 -277 151 -67 137 -44 331 57 464 32 41 118 100 174
119 64 20 193 13 244 -13z m-5685 8 c0 -5 -3 -22 -6 -39 l-6 -31 -106 -3 -106
-3 -40 -322 -39 -323 -49 0 c-42 0 -48 3 -48 20 0 12 16 149 35 306 19 156 35
294 35 304 0 19 -7 20 -105 20 -58 0 -105 4 -105 9 0 5 3 23 6 40 l7 31 263 0
c145 0 264 -4 264 -9z m783 -349 c48 -196 87 -361 87 -365 0 -12 -87 -8 -98 6
-5 6 -18 51 -28 100 l-18 87 -146 0 -145 -1 -39 -87 c-22 -48 -45 -93 -51
-100 -8 -8 -29 -12 -58 -10 l-46 3 176 363 176 362 52 0 51 0 87 -358z m1507
352 c0 -12 -30 -260 -35 -291 -5 -30 -4 -33 20 -33 31 0 56 24 209 198 l117
132 56 0 c52 0 55 -1 41 -17 -66 -80 -285 -320 -296 -327 -13 -8 -13 -10 -1
-20 12 -9 204 -301 233 -353 5 -10 -7 -13 -48 -13 l-56 0 -110 165 c-107 161
-111 165 -145 165 -21 0 -35 -5 -35 -12 0 -20 -30 -271 -35 -295 -5 -20 -12
-23 -56 -23 l-50 0 5 33 c3 17 22 167 41 332 48 410 36 365 95 365 28 0 50 -3
50 -6z m1740 -16 c0 -45 -8 -47 -170 -50 l-155 -3 -15 -132 -16 -133 133 0
133 0 0 -35 0 -35 -138 0 -138 0 -18 -160 -18 -160 -54 0 c-38 0 -52 4 -49 13
2 6 23 171 46 365 l42 352 209 0 208 0 0 -22z m530 2 c0 -12 -16 -149 -35
-306 -19 -156 -35 -294 -35 -304 0 -19 7 -20 141 -20 l142 0 -6 -36 c-3 -20
-8 -38 -10 -40 -2 -3 -89 -3 -193 -2 l-189 3 44 363 44 362 49 0 c42 0 48 -3
48 -20z m1796 9 c8 -13 83 -501 84 -544 0 -20 40 65 118 250 65 154 121 286
126 293 8 13 72 17 79 5 3 -5 27 -133 53 -285 26 -153 49 -277 50 -275 1 1 50
123 108 272 59 148 112 276 120 283 8 8 30 12 57 10 l45 -3 -147 -360 -146
-360 -46 -3 c-41 -3 -47 -1 -52 20 -3 13 -25 140 -50 283 -25 142 -47 260 -48
262 -2 1 -57 -126 -123 -282 l-119 -285 -47 0 c-27 0 -48 4 -48 8 0 7 -98 609
-113 700 -4 20 0 22 44 22 26 0 51 -5 55 -11z"/>
<path d="M4777 7428 c-3 -13 -9 -58 -12 -100 l-7 -78 261 0 261 0 0 -27 c0
-16 -5 -57 -10 -93 -5 -36 -14 -103 -19 -150 -6 -47 -17 -141 -25 -210 -9 -69
-22 -181 -31 -250 -23 -193 -43 -353 -59 -485 -9 -66 -20 -158 -25 -205 -6
-47 -13 -102 -16 -122 l-5 -38 115 0 c132 0 117 -14 134 130 19 157 31 255 41
330 5 41 30 242 55 445 25 204 49 402 55 440 5 39 12 97 15 130 3 33 8 70 11
82 l4 23 263 2 262 3 7 65 c4 36 10 80 13 98 l6 32 -644 0 -645 0 -5 -22z"/>
<path d="M6320 7443 c0 -5 -20 -172 -45 -373 -25 -201 -57 -457 -70 -570 -14
-113 -30 -239 -35 -280 -14 -102 -37 -295 -50 -410 -6 -52 -13 -104 -16 -117
l-6 -23 121 0 c90 0 121 3 121 13 0 6 11 104 25 217 14 113 33 264 41 335 9
72 19 146 23 165 l7 35 331 3 330 2 7 53 c4 28 10 69 13 90 l6 37 -332 0 -331
0 0 29 c0 16 9 99 19 183 11 84 27 214 36 288 9 74 20 138 24 142 3 4 180 9
391 10 l385 3 7 55 c4 30 9 70 12 88 l5 32 -510 0 c-280 0 -509 -3 -509 -7z"/>
<path d="M8166 3896 c-80 -30 -145 -102 -171 -188 -18 -62 -20 -195 -3 -251
52 -174 293 -179 395 -8 85 142 66 359 -37 427 -48 32 -129 40 -184 20z"/>
<path d="M3249 3692 l-76 -167 115 -3 c63 -1 116 -1 118 0 4 5 -70 338 -76
338 -3 0 -39 -76 -81 -168z"/>
</g>
</svg>
